<svg width="453" height="337" viewBox="0 0 453 337" fill="none" xmlns="http://www.w3.org/2000/svg">
<path d="M452.276 296.151H0V296.377H452.276V296.151Z" fill="#EBEBEB"/>
<path d="M214.379 255.807H39.7189C38.3507 255.805 37.0393 255.26 36.0726 254.292C35.1059 253.323 34.563 252.011 34.563 250.642V5.11977C34.5749 3.75934 35.1231 2.45855 36.0885 1.49995C37.0538 0.541337 38.3585 0.00233048 39.7189 0H214.379C215.749 0 217.063 0.544168 218.031 1.51279C219 2.48142 219.544 3.79515 219.544 5.16499V250.642C219.544 252.012 219 253.326 218.031 254.295C217.063 255.263 215.749 255.807 214.379 255.807ZM39.7189 0.180911C38.4106 0.183307 37.1567 0.704705 36.2325 1.63066C35.3082 2.55662 34.7891 3.81147 34.7891 5.11977V250.642C34.7891 251.951 35.3082 253.206 36.2325 254.132C37.1567 255.058 38.4106 255.579 39.7189 255.581H214.379C215.688 255.579 216.943 255.058 217.869 254.132C218.794 253.206 219.315 251.952 219.318 250.642V5.11977C219.315 3.81064 218.794 2.55581 217.869 1.63011C216.943 0.704412 215.688 0.183302 214.379 0.180911H39.7189Z" fill="#EBEBEB"/>
<path d="M410.043 255.807H235.374C234.005 255.805 232.692 255.26 231.724 254.292C230.756 253.324 230.211 252.012 230.209 250.642V5.11977C230.223 3.75852 230.773 2.45774 231.74 1.49938C232.707 0.541021 234.012 0.00230506 235.374 0H410.043C411.402 0.00470774 412.704 0.544766 413.667 1.50312C414.631 2.46147 415.178 3.76091 415.19 5.11977V250.642C415.19 252.009 414.648 253.32 413.683 254.288C412.719 255.256 411.409 255.803 410.043 255.807ZM235.374 0.180911C234.065 0.183302 232.81 0.704412 231.884 1.63011C230.958 2.55581 230.437 3.81064 230.435 5.11977V250.642C230.437 251.952 230.958 253.206 231.884 254.132C232.81 255.058 234.065 255.579 235.374 255.581H410.043C411.352 255.579 412.607 255.058 413.532 254.132C414.458 253.206 414.979 251.952 414.982 250.642V5.11977C414.979 3.81064 414.458 2.55581 413.532 1.63011C412.607 0.704412 411.352 0.183302 410.043 0.180911H235.374Z" fill="#EBEBEB"/>
<path d="M406.958 304.762H378.401V304.988H406.958V304.762Z" fill="#EBEBEB"/>
<path d="M303.333 302.311H273.112V302.537H303.333V302.311Z" fill="#EBEBEB"/>
<path d="M415.208 313.165H358.737V313.391H415.208V313.165Z" fill="#EBEBEB"/>
<path d="M64.8474 311.646H47.4528V311.872H64.8474V311.646Z" fill="#EBEBEB"/>
<path d="M100.306 311.646H72.907V311.872H100.306V311.646Z" fill="#EBEBEB"/>
<path d="M220.837 307.828H171.485V308.055H220.837V307.828Z" fill="#EBEBEB"/>
<path d="M412.883 181.128C403.711 177.283 388.514 180.992 375.923 196.261C370.107 203.316 364.499 213.665 362.988 224.257C363.087 212.172 363.214 199.192 363.332 186.935C364.72 180.923 366.907 175.125 369.835 169.694C379.071 151.133 386.705 153.186 399.251 138.659C420.119 114.489 432.078 68.8909 411.318 87.0995C392.494 103.562 383.386 120.043 377.063 134.344C368.506 153.675 365.068 167.161 363.395 180.694C363.513 169.188 363.621 158.623 363.721 150.472C364.046 123.888 364.77 115.34 364.906 112.698C365.231 106.303 367.339 102.576 367.927 101.663C372.875 93.8927 380.645 88.8091 388.252 79.9536C405.99 59.3388 416.23 33.8214 407.682 31.4153C398.754 28.9458 387.022 40.1985 373.987 66.6204C366.516 81.7627 364.607 85.3447 363.133 115.014C363.006 117.592 362.436 127.307 362.165 140.803C360.057 126.285 356.05 111.857 349.058 102.296C335.571 83.8522 325.313 82.0883 317.842 83.8522C310.37 85.6161 313.5 104.983 321.93 115.331C334.594 130.907 355.761 127.596 362.029 148.32C361.713 166.619 361.486 189.793 361.36 211.376C359.225 200.232 356.991 190.96 352.088 182.231C342.97 166.004 331.754 158.921 324.047 166.564C319.244 171.322 324.816 184.656 334.856 190.083C345.051 195.637 353.418 203.316 356.656 207.939C357.407 209.015 359.912 213.14 361.342 215.519C361.206 241.869 361.224 265.125 361.45 273.057L362.726 273.175C362.644 271.131 362.726 257.725 362.834 239.987C365.059 217.853 380.69 216.65 390.685 212.434C408.55 204.881 422.055 184.981 412.883 181.128Z" fill="#E6E6E6"/>
<path d="M349.157 296.151H375.516C376.164 296.189 376.806 296.012 377.343 295.647C377.88 295.282 378.28 294.75 378.483 294.133L380.364 261.416H344.327L346.19 294.106C346.389 294.727 346.789 295.264 347.325 295.634C347.862 296.004 348.506 296.186 349.157 296.151Z" fill="#E6E6E6"/>
<path d="M344.987 272.568H379.704C380.536 272.568 381.233 271.474 381.332 270.027L382.038 258.991C382.146 257.291 381.387 255.807 380.419 255.807H344.237C343.26 255.807 342.5 257.291 342.617 258.991L343.323 270.027C343.45 271.474 344.155 272.568 344.987 272.568Z" fill="#F5F5F5"/>
<path d="M168.247 225.658H134.028V290.162H168.247V225.658Z" fill="#F0F0F0"/>
<path d="M309.366 290.162H140.604V296.15H309.366V290.162Z" fill="#F0F0F0"/>
<path d="M168.247 290.153H315.933V225.65H168.247V290.153Z" fill="#FAFAFA"/>
<path d="M181.707 253.356L302.482 253.356V233.511H181.707V253.356Z" fill="#F0F0F0"/>
<path d="M181.707 278.856H302.482V259.01H181.707V278.856Z" fill="#F0F0F0"/>
<path d="M256.911 231.041H227.278C226.129 231.041 225.198 231.972 225.198 233.121V233.212C225.198 234.361 226.129 235.292 227.278 235.292H256.911C258.06 235.292 258.992 234.361 258.992 233.212V233.121C258.992 231.972 258.06 231.041 256.911 231.041Z" fill="#FAFAFA"/>
<path d="M256.911 256.54H227.278C226.129 256.54 225.198 257.472 225.198 258.621V258.711C225.198 259.86 226.129 260.791 227.278 260.791H256.911C258.06 260.791 258.992 259.86 258.992 258.711V258.621C258.992 257.472 258.06 256.54 256.911 256.54Z" fill="#FAFAFA"/>
<path d="M320.501 219.869H168.256V225.649H320.501V219.869Z" fill="#F0F0F0"/>
<path d="M129.242 225.658H168.247V219.878H129.242V225.658Z" fill="#E6E6E6"/>
<path d="M101.165 245.568C97.2575 243.524 90.401 244.582 84.2591 250.851C80.9998 254.148 78.6635 258.243 77.484 262.727C77.9815 257.4 78.5333 251.665 79.0489 246.255C79.8923 243.652 81.0787 241.173 82.5767 238.883C87.3617 231.032 90.6634 232.226 96.751 226.283C106.9 216.396 113.938 196.695 104.051 203.94C96.9759 209.076 91.1813 215.775 87.1175 223.515C82.5948 231.737 80.5686 237.563 79.3112 243.478C79.7997 238.404 80.2158 233.736 80.6047 230.136C81.7626 218.377 82.4138 214.65 82.5676 213.492C82.7378 211.78 83.3418 210.14 84.3224 208.726C86.8371 205.478 90.4553 203.524 94.1278 199.906C102.748 191.467 108.239 180.567 104.557 179.192C100.704 177.763 95.0866 182.294 88.3296 193.466C84.4491 199.879 83.4722 201.39 81.6812 214.442C81.5183 215.582 80.9032 219.87 80.2701 225.803C79.8901 219.309 78.669 212.787 75.9372 208.291C70.6818 199.626 66.2133 198.459 62.8484 199.002C59.4834 199.544 60.1347 208.174 63.4544 213.067C68.4747 220.43 77.9273 219.77 79.9263 229.168C79.0941 237.237 78.1172 247.477 77.2127 257.011C76.6971 251.999 76.0639 247.82 74.2276 243.777C70.8175 236.26 66.0867 232.705 62.4685 235.79C60.1709 237.707 62.1247 243.804 66.358 246.644C70.5913 249.485 74.0558 253.193 75.3131 255.364C75.6026 255.862 76.5523 257.788 77.1222 258.892C75.9825 270.461 75.1322 280.728 74.9332 284.238L75.5211 284.319C75.5664 283.414 76.1001 277.499 76.8328 269.665C78.6419 259.959 85.6069 260.023 90.1839 258.539C98.3521 255.898 105.073 247.612 101.165 245.568Z" fill="#F0F0F0"/>
<path d="M40.6506 225.415C45.707 223.135 54.2189 224.971 61.4553 233.302C65.3009 237.672 67.9332 242.974 69.0897 248.68C68.8455 241.941 68.5922 234.704 68.3389 227.875C67.4743 224.544 66.1693 221.344 64.4584 218.359C59.0311 208.147 54.7978 209.404 47.5885 201.489C35.5851 188.319 28.2311 163.073 40.0897 172.896C48.5871 179.874 55.3651 188.713 59.8994 198.73C64.9559 209.386 67.0726 216.821 68.2123 224.374C67.9771 217.961 67.751 212.072 67.57 207.522C67.0002 192.706 66.4665 187.948 66.3489 186.474C66.2656 184.319 65.6436 182.22 64.5398 180.368C61.6633 176.107 57.3034 173.394 52.8711 168.563C42.6768 157.329 36.5891 143.236 41.3109 141.789C46.2588 140.278 52.9706 146.375 60.6321 160.911C65.0283 169.251 66.1409 171.214 67.4253 187.74C67.5429 189.178 67.9952 194.587 68.3299 202.113C69.2887 193.972 71.3059 185.886 75.0688 180.404C82.3052 169.911 88.0039 168.78 92.192 169.649C96.3801 170.517 94.9056 181.408 90.3829 187.27C83.5444 196.143 71.7039 194.605 68.5198 206.265C68.9631 216.459 69.4244 229.386 69.8314 241.416C70.8536 235.175 71.9662 229.964 74.5622 225.026C79.4106 215.835 85.5616 211.72 89.9396 215.871C92.6533 218.449 89.7859 225.966 84.259 229.168C78.7322 232.371 74.1733 236.902 72.4365 239.526C72.0295 240.132 70.6998 242.474 69.94 243.822C70.4103 258.512 70.745 271.483 70.736 275.907L69.9852 275.97C69.9852 274.83 69.7681 267.359 69.4244 257.463C67.8414 245.134 59.1215 244.718 53.4862 242.52C43.4185 238.594 35.5941 227.694 40.6506 225.415Z" fill="#E6E6E6"/>
<path d="M62.0432 296.151H85.4259C86.0038 296.182 86.5757 296.021 87.0532 295.694C87.5307 295.367 87.887 294.892 88.0672 294.342L89.7225 265.342H57.7466L59.411 294.342C59.588 294.892 59.9424 295.368 60.4187 295.695C60.8949 296.022 61.4662 296.183 62.0432 296.151Z" fill="#E6E6E6"/>
<path d="M58.3346 275.237H89.1346C89.8763 275.237 90.4914 274.26 90.5819 272.976L91.206 263.188C91.3055 261.678 90.6362 260.366 89.7678 260.366H57.7105C56.8059 260.366 56.1727 261.678 56.2632 263.188L56.8964 272.976C56.9868 274.26 57.6019 275.237 58.3346 275.237Z" fill="#F5F5F5"/>
<path d="M247.151 22.4871H54.445V131.449H247.151V22.4871Z" fill="#E6E6E6"/>
<path d="M253.175 22.4871H55.4671V131.449H253.175V22.4871Z" fill="#F5F5F5"/>
<path d="M248.363 122.866V31.0806C248.363 28.9924 246.67 27.2996 244.582 27.2996L64.0513 27.2996C61.9631 27.2996 60.2703 28.9924 60.2703 31.0806V122.866C60.2703 124.954 61.9631 126.647 64.0513 126.647L244.582 126.647C246.67 126.647 248.363 124.954 248.363 122.866Z" fill="white"/>
<path d="M226.138 337C323 337 401.522 332.416 401.522 326.761C401.522 321.105 323 316.521 226.138 316.521C129.276 316.521 50.7545 321.105 50.7545 326.761C50.7545 332.416 129.276 337 226.138 337Z" fill="#F5F5F5"/>
<path d="M363.549 232.841H341.84V231.937H363.549C366.102 231.884 368.596 231.157 370.777 229.828C372.958 228.5 374.749 226.619 375.968 224.375L376.764 224.809C375.467 227.196 373.561 229.196 371.24 230.607C368.918 232.018 366.265 232.789 363.549 232.841Z" fill="#E4A951"/>
<path d="M337.543 231.936H328.651V232.841H337.543V231.936Z" fill="#E4A951"/>
<path d="M363.549 229.675H109.55C108.158 229.702 106.775 229.432 105.495 228.884C104.215 228.336 103.066 227.521 102.125 226.494C101.183 225.467 100.471 224.252 100.036 222.929C99.601 221.606 99.4524 220.205 99.6003 218.82L113.322 61.4281C113.629 58.499 114.992 55.7819 117.156 53.7843C119.32 51.7867 122.137 50.6453 125.082 50.5734H379.08C380.472 50.5478 381.854 50.8184 383.134 51.3673C384.413 51.9162 385.562 52.7308 386.502 53.7573C387.443 54.7837 388.155 55.9984 388.591 57.3209C389.027 58.6434 389.176 60.0434 389.03 61.4281L375.389 218.82C375.081 221.763 373.706 224.491 371.525 226.491C369.344 228.49 366.507 229.623 363.549 229.675Z" fill="#E4A951"/>
<path d="M358.257 226.373H110.591C109.405 226.391 108.229 226.156 107.141 225.684C106.053 225.212 105.078 224.514 104.281 223.636C103.483 222.758 102.882 221.721 102.516 220.593C102.151 219.464 102.029 218.271 102.16 217.093L114.661 73.712C114.736 72.9934 115.07 72.3268 115.602 71.8371C116.133 71.3475 116.824 71.0686 117.547 71.0526H378.393C378.733 71.0467 379.071 71.1134 379.383 71.2482C379.696 71.383 379.976 71.5829 380.206 71.8345C380.435 72.0861 380.608 72.3837 380.714 72.7074C380.819 73.0311 380.854 73.3736 380.817 73.712L368.307 217.093C368.053 219.6 366.892 221.927 365.04 223.637C363.189 225.347 360.777 226.32 358.257 226.373Z" fill="white"/>
<path d="M142.16 63.9161C140.451 63.9452 138.756 63.6106 137.186 62.9344C135.617 62.2582 134.21 61.2559 133.057 59.9941C131.905 58.7322 131.034 57.2397 130.503 55.6155C129.971 53.9914 129.792 52.2728 129.975 50.5739C130.347 46.9682 132.023 43.6224 134.688 41.1655C137.353 38.7085 140.824 37.3097 144.448 37.2318C146.156 37.2024 147.851 37.537 149.42 38.2133C150.989 38.8896 152.396 39.892 153.548 41.1541C154.7 42.4161 155.569 43.9088 156.1 45.5329C156.63 47.1571 156.809 48.8755 156.623 50.5739H151.196C151.305 49.5653 151.199 48.545 150.883 47.5808C150.568 46.6166 150.05 45.7307 149.366 44.9819C148.681 44.2332 147.845 43.6388 146.913 43.2383C145.981 42.8378 144.974 42.6403 143.96 42.6591C141.805 42.6986 139.74 43.5255 138.153 44.9837C136.567 46.4418 135.569 48.4304 135.348 50.5739C135.239 51.5825 135.346 52.6028 135.661 53.567C135.977 54.5312 136.494 55.4171 137.179 56.1659C137.863 56.9146 138.699 57.509 139.632 57.9095C140.564 58.31 141.57 58.5075 142.585 58.4887L142.16 63.9161Z" fill="#263238"/>
<path d="M195.845 63.9161C194.133 63.9504 192.434 63.6196 190.86 62.9457C189.286 62.2718 187.874 61.2703 186.718 60.0079C185.562 58.7454 184.688 57.2511 184.154 55.6244C183.621 53.9976 183.44 52.2759 183.624 50.5739C183.996 46.9682 185.672 43.6224 188.337 41.1655C191.002 38.7085 194.473 37.3097 198.097 37.2318C199.805 37.2024 201.5 37.537 203.069 38.2133C204.638 38.8896 206.045 39.892 207.197 41.1541C208.349 42.4161 209.219 43.9088 209.749 45.5329C210.279 47.1571 210.458 48.8755 210.272 50.5739H204.845C204.954 49.5653 204.848 48.545 204.532 47.5808C204.217 46.6166 203.699 45.7307 203.015 44.9819C202.33 44.2332 201.494 43.6388 200.562 43.2383C199.63 42.8378 198.623 42.6403 197.609 42.6591C195.454 42.6986 193.389 43.5255 191.802 44.9837C190.216 46.4418 189.218 48.4304 188.997 50.5739C188.89 51.5822 188.997 52.6019 189.313 53.5655C189.63 54.529 190.147 55.4143 190.831 56.1627C191.515 56.9112 192.351 57.5056 193.282 57.9066C194.214 58.3076 195.22 58.506 196.234 58.4887L195.845 63.9161Z" fill="#263238"/>
<path d="M249.53 63.9161C247.822 63.9439 246.128 63.6083 244.56 62.9315C242.991 62.2548 241.585 61.2523 240.434 59.9906C239.282 58.7289 238.412 57.2368 237.881 55.6134C237.351 53.9899 237.171 52.2721 237.355 50.5739C237.723 46.9667 239.398 43.6187 242.063 41.161C244.729 38.7033 248.202 37.3058 251.828 37.2318C253.536 37.2024 255.231 37.537 256.8 38.2133C258.369 38.8896 259.776 39.892 260.927 41.1541C262.079 42.4161 262.949 43.9088 263.479 45.5329C264.009 47.1571 264.188 48.8755 264.003 50.5739H258.575C258.686 49.565 258.581 48.5441 258.266 47.5792C257.951 46.6144 257.433 45.7279 256.748 44.9788C256.064 44.2297 255.227 43.6353 254.294 43.2353C253.361 42.8353 252.354 42.6388 251.339 42.6591C249.186 42.6988 247.121 43.526 245.536 44.9844C243.951 46.4427 242.955 48.4312 242.737 50.5739C242.627 51.5825 242.734 52.6028 243.05 53.567C243.365 54.5312 243.883 55.4171 244.567 56.1659C245.252 56.9146 246.088 57.509 247.02 57.9095C247.952 58.31 248.959 58.5075 249.973 58.4887L249.53 63.9161Z" fill="#263238"/>
<path d="M303.215 63.916C301.507 63.9439 299.813 63.6083 298.245 62.9315C296.677 62.2548 295.27 61.2523 294.119 59.9906C292.967 58.7289 292.097 57.2368 291.567 55.6133C291.036 53.9898 290.856 52.2721 291.04 50.5739C291.41 46.9674 293.085 43.6205 295.751 41.1632C298.416 38.7059 301.888 37.3077 305.513 37.2317C307.221 37.2026 308.917 37.5372 310.486 38.2134C312.055 38.8896 313.463 39.8919 314.615 41.1537C315.768 42.4156 316.638 43.9081 317.17 45.5322C317.701 47.1564 317.881 48.8749 317.697 50.5739H312.27C312.379 49.5653 312.272 48.5449 311.957 47.5808C311.641 46.6166 311.124 45.7307 310.439 44.9819C309.755 44.2332 308.919 43.6388 307.986 43.2383C307.054 42.8377 306.048 42.6403 305.033 42.659C302.88 42.6988 300.816 43.526 299.231 44.9844C297.645 46.4427 296.65 48.4312 296.431 50.5739C296.322 51.5825 296.428 52.6028 296.744 53.567C297.06 54.5312 297.577 55.4171 298.261 56.1659C298.946 56.9146 299.782 57.509 300.714 57.9095C301.646 58.31 302.653 58.5075 303.667 58.4887L303.215 63.916Z" fill="#263238"/>
<path d="M356.9 63.916C355.193 63.9439 353.498 63.6083 351.93 62.9315C350.362 62.2548 348.955 61.2523 347.804 59.9906C346.653 58.7289 345.783 57.2368 345.252 55.6133C344.721 53.9898 344.542 52.2721 344.725 50.5739C345.095 46.9674 346.77 43.6205 349.436 41.1632C352.102 38.7059 355.573 37.3077 359.198 37.2317C360.907 37.2026 362.602 37.5372 364.171 38.2134C365.741 38.8896 367.148 39.8919 368.3 41.1537C369.453 42.4156 370.324 43.9081 370.855 45.5322C371.386 47.1564 371.566 48.8749 371.382 50.5739H365.955C366.064 49.5653 365.958 48.5449 365.642 47.5808C365.326 46.6166 364.809 45.7307 364.125 44.9819C363.44 44.2332 362.604 43.6388 361.672 43.2383C360.74 42.8377 359.733 42.6403 358.719 42.659C356.566 42.7007 354.502 43.5286 352.918 44.9866C351.333 46.4446 350.337 48.4319 350.116 50.5739C350.007 51.5825 350.114 52.6028 350.429 53.567C350.745 54.5312 351.262 55.4171 351.947 56.1659C352.631 56.9146 353.467 57.509 354.4 57.9095C355.332 58.31 356.338 58.5075 357.353 58.4887L356.9 63.916Z" fill="#263238"/>
<path d="M357.606 219.87H112.771C112.713 219.872 112.655 219.861 112.602 219.838C112.548 219.816 112.501 219.781 112.462 219.738C112.423 219.695 112.394 219.644 112.377 219.589C112.36 219.534 112.356 219.475 112.364 219.418L124.566 79.5196C124.577 79.3972 124.633 79.2832 124.723 79.1997C124.814 79.1162 124.932 79.069 125.054 79.0673H369.881C369.939 79.0656 369.997 79.0765 370.051 79.0992C370.104 79.1218 370.152 79.1557 370.192 79.1986C370.231 79.2415 370.261 79.2923 370.279 79.3477C370.297 79.4031 370.303 79.4617 370.297 79.5196L358.094 219.418C358.083 219.54 358.027 219.654 357.937 219.738C357.847 219.821 357.729 219.868 357.606 219.87ZM113.304 218.965H357.226L369.356 79.9719H125.434L113.304 218.965Z" fill="#E0E0E0"/>
<path d="M360.012 191.892H115.213C115.155 191.892 115.099 191.88 115.046 191.857C114.993 191.834 114.946 191.8 114.908 191.757C114.869 191.714 114.84 191.664 114.823 191.609C114.805 191.554 114.8 191.497 114.806 191.44C114.815 191.316 114.871 191.201 114.961 191.117C115.052 191.033 115.171 190.987 115.294 190.987H360.121C360.179 190.986 360.237 190.996 360.29 191.019C360.344 191.042 360.392 191.076 360.432 191.119C360.471 191.161 360.501 191.212 360.519 191.268C360.537 191.323 360.543 191.382 360.537 191.44C360.521 191.567 360.459 191.683 360.362 191.767C360.265 191.85 360.14 191.895 360.012 191.892Z" fill="#E0E0E0"/>
<path d="M362.482 163.914H117.655C117.597 163.914 117.54 163.903 117.487 163.879C117.434 163.856 117.387 163.822 117.347 163.78C117.308 163.737 117.278 163.687 117.26 163.632C117.241 163.578 117.234 163.52 117.239 163.462C117.252 163.339 117.31 163.225 117.402 163.141C117.494 163.058 117.613 163.011 117.737 163.01H362.563C362.621 163.008 362.679 163.019 362.733 163.042C362.786 163.064 362.835 163.098 362.874 163.141C362.914 163.184 362.943 163.235 362.961 163.29C362.98 163.345 362.986 163.404 362.979 163.462C362.964 163.584 362.905 163.697 362.814 163.78C362.723 163.863 362.605 163.911 362.482 163.914Z" fill="#E0E0E0"/>
<path d="M364.924 135.927H120.098C120.039 135.929 119.981 135.918 119.928 135.895C119.874 135.873 119.826 135.839 119.786 135.796C119.747 135.753 119.717 135.702 119.699 135.647C119.681 135.591 119.675 135.533 119.681 135.475C119.697 135.353 119.755 135.24 119.846 135.157C119.938 135.074 120.056 135.026 120.179 135.023H365.005C365.063 135.022 365.12 135.034 365.172 135.057C365.225 135.081 365.272 135.115 365.31 135.157C365.349 135.2 365.378 135.251 365.395 135.305C365.413 135.36 365.419 135.418 365.412 135.475C365.403 135.598 365.348 135.713 365.257 135.797C365.166 135.881 365.047 135.928 364.924 135.927Z" fill="#E0E0E0"/>
<path d="M367.366 107.949H122.54C122.482 107.951 122.424 107.94 122.37 107.918C122.316 107.895 122.268 107.861 122.229 107.818C122.189 107.775 122.159 107.724 122.141 107.669C122.123 107.614 122.117 107.555 122.124 107.497C122.135 107.375 122.191 107.261 122.281 107.177C122.371 107.094 122.489 107.047 122.612 107.045H367.447C367.505 107.043 367.563 107.054 367.616 107.077C367.67 107.099 367.717 107.133 367.756 107.176C367.795 107.22 367.824 107.271 367.841 107.326C367.858 107.381 367.862 107.44 367.855 107.497C367.845 107.62 367.79 107.735 367.699 107.819C367.609 107.903 367.49 107.95 367.366 107.949Z" fill="#E0E0E0"/>
<path d="M326.996 219.87C326.938 219.872 326.88 219.861 326.827 219.838C326.774 219.816 326.726 219.781 326.687 219.738C326.648 219.695 326.62 219.644 326.603 219.589C326.586 219.534 326.581 219.475 326.589 219.418L338.791 79.5196C338.802 79.3972 338.858 79.2832 338.949 79.1997C339.039 79.1162 339.157 79.069 339.28 79.0673C339.338 79.0656 339.396 79.0765 339.45 79.0992C339.503 79.1218 339.551 79.1557 339.591 79.1986C339.63 79.2415 339.66 79.2923 339.678 79.3477C339.696 79.4031 339.702 79.4617 339.696 79.5196L327.493 219.418C327.48 219.541 327.422 219.655 327.33 219.738C327.239 219.822 327.12 219.868 326.996 219.87Z" fill="#E0E0E0"/>
<path d="M296.395 219.87C296.337 219.872 296.279 219.861 296.225 219.838C296.171 219.816 296.123 219.782 296.084 219.739C296.044 219.696 296.014 219.645 295.996 219.59C295.978 219.534 295.972 219.476 295.979 219.418L308.181 79.5196C308.194 79.3964 308.252 79.2824 308.344 79.199C308.436 79.1157 308.555 79.0688 308.679 79.0673C308.737 79.0655 308.794 79.0763 308.848 79.099C308.901 79.1217 308.949 79.1558 308.987 79.1989C309.026 79.242 309.055 79.293 309.072 79.3484C309.089 79.4038 309.094 79.4622 309.086 79.5196L296.883 219.418C296.874 219.541 296.819 219.656 296.728 219.74C296.637 219.824 296.518 219.87 296.395 219.87Z" fill="#E0E0E0"/>
<path d="M265.794 219.87C265.736 219.872 265.678 219.861 265.624 219.838C265.57 219.816 265.522 219.782 265.483 219.739C265.443 219.696 265.413 219.645 265.395 219.59C265.377 219.534 265.371 219.476 265.378 219.418L277.58 79.5196C277.593 79.3964 277.651 79.2824 277.743 79.199C277.835 79.1157 277.954 79.0688 278.078 79.0673C278.136 79.0655 278.193 79.0763 278.247 79.099C278.3 79.1217 278.348 79.1558 278.386 79.1989C278.425 79.242 278.454 79.293 278.471 79.3484C278.488 79.4038 278.493 79.4622 278.485 79.5196L266.282 219.418C266.271 219.54 266.215 219.654 266.125 219.738C266.035 219.821 265.917 219.868 265.794 219.87Z" fill="#E0E0E0"/>
<path d="M235.184 219.87C235.126 219.872 235.068 219.861 235.014 219.838C234.96 219.815 234.912 219.782 234.873 219.739C234.833 219.696 234.803 219.645 234.785 219.59C234.767 219.534 234.761 219.476 234.768 219.418L246.943 79.5196C246.954 79.3972 247.01 79.2832 247.1 79.1997C247.191 79.1162 247.309 79.069 247.431 79.0673C247.49 79.0656 247.548 79.0765 247.601 79.0992C247.655 79.1218 247.703 79.1557 247.743 79.1986C247.782 79.2415 247.812 79.2923 247.83 79.3477C247.848 79.4031 247.854 79.4617 247.848 79.5196L235.681 219.418C235.67 219.542 235.613 219.657 235.52 219.741C235.428 219.824 235.308 219.87 235.184 219.87Z" fill="#E0E0E0"/>
<path d="M204.583 219.87C204.525 219.872 204.467 219.861 204.414 219.838C204.361 219.816 204.313 219.781 204.274 219.738C204.235 219.695 204.207 219.644 204.19 219.589C204.173 219.534 204.168 219.475 204.176 219.418L216.378 79.5196C216.387 79.3964 216.443 79.2813 216.533 79.1973C216.624 79.1134 216.743 79.067 216.867 79.0673C216.925 79.0656 216.983 79.0765 217.036 79.0992C217.09 79.1218 217.138 79.1557 217.178 79.1986C217.217 79.2415 217.247 79.2923 217.265 79.3477C217.283 79.4031 217.289 79.4617 217.283 79.5196L205.08 219.418C205.067 219.541 205.009 219.655 204.917 219.738C204.826 219.822 204.707 219.868 204.583 219.87Z" fill="#E0E0E0"/>
<path d="M173.982 219.87C173.924 219.872 173.866 219.861 173.812 219.838C173.758 219.816 173.71 219.782 173.671 219.739C173.631 219.696 173.601 219.645 173.583 219.59C173.565 219.534 173.559 219.476 173.566 219.418L185.768 79.5196C185.781 79.3964 185.839 79.2824 185.931 79.199C186.023 79.1157 186.142 79.0688 186.266 79.0673C186.324 79.0655 186.381 79.0763 186.434 79.099C186.488 79.1217 186.535 79.1558 186.574 79.1989C186.613 79.242 186.642 79.293 186.659 79.3484C186.676 79.4038 186.681 79.4622 186.673 79.5196L174.47 219.418C174.461 219.541 174.406 219.656 174.315 219.74C174.224 219.824 174.105 219.87 173.982 219.87Z" fill="#E0E0E0"/>
<path d="M143.381 219.87C143.322 219.872 143.265 219.861 143.211 219.838C143.157 219.816 143.109 219.782 143.07 219.739C143.03 219.696 143 219.645 142.982 219.59C142.964 219.534 142.958 219.476 142.965 219.418L155.167 79.5196C155.18 79.3964 155.238 79.2824 155.33 79.199C155.422 79.1157 155.541 79.0688 155.665 79.0673C155.722 79.0655 155.78 79.0763 155.833 79.099C155.887 79.1217 155.934 79.1558 155.973 79.1989C156.012 79.242 156.041 79.293 156.058 79.3484C156.075 79.4038 156.08 79.4622 156.072 79.5196L143.869 219.418C143.858 219.54 143.802 219.654 143.712 219.738C143.622 219.821 143.504 219.868 143.381 219.87Z" fill="#E0E0E0"/>
<path d="M267.449 132.68H248.752C248.382 132.686 248.015 132.613 247.675 132.466C247.335 132.319 247.03 132.102 246.781 131.828C246.532 131.554 246.344 131.23 246.23 130.878C246.116 130.526 246.079 130.153 246.12 129.785L247.567 113.187C247.645 112.403 248.007 111.676 248.586 111.142C249.164 110.608 249.919 110.306 250.706 110.292H269.403C269.774 110.285 270.142 110.356 270.483 110.503C270.824 110.649 271.13 110.867 271.38 111.141C271.63 111.415 271.818 111.739 271.933 112.092C272.048 112.445 272.086 112.818 272.044 113.187L270.597 129.785C270.519 130.57 270.156 131.299 269.575 131.833C268.994 132.366 268.238 132.668 267.449 132.68Z" fill="#E4A951"/>
<path opacity="0.6" d="M267.449 132.68H248.752C248.382 132.686 248.015 132.613 247.675 132.466C247.335 132.319 247.03 132.102 246.781 131.828C246.532 131.554 246.344 131.23 246.23 130.878C246.116 130.526 246.079 130.153 246.12 129.785L247.567 113.187C247.645 112.403 248.007 111.676 248.586 111.142C249.164 110.608 249.919 110.306 250.706 110.292H269.403C269.774 110.285 270.142 110.356 270.483 110.503C270.824 110.649 271.13 110.867 271.38 111.141C271.63 111.415 271.818 111.739 271.933 112.092C272.048 112.445 272.086 112.818 272.044 113.187L270.597 129.785C270.519 130.57 270.156 131.299 269.575 131.833C268.994 132.366 268.238 132.668 267.449 132.68Z" fill="white"/>
<path d="M397.904 132.68H378.248L380.193 110.292H399.858L392.467 121.491L397.904 132.68Z" fill="white"/>
<path d="M398.636 133.132H377.75L379.786 109.84H400.717L393.037 121.49L398.636 133.132ZM378.736 132.228H397.162L391.943 121.49L399.034 110.744H380.609L378.736 132.228Z" fill="#E4A951"/>
<path d="M326.037 160.658H307.34C306.97 160.665 306.603 160.593 306.262 160.448C305.922 160.302 305.617 160.085 305.367 159.812C305.117 159.539 304.928 159.216 304.813 158.864C304.698 158.512 304.659 158.14 304.699 157.772L306.146 141.165C306.228 140.382 306.593 139.657 307.173 139.125C307.753 138.593 308.507 138.293 309.294 138.279H327.991C328.361 138.273 328.727 138.346 329.067 138.492C329.406 138.639 329.711 138.855 329.961 139.128C330.21 139.401 330.399 139.723 330.515 140.074C330.631 140.425 330.671 140.797 330.632 141.165L329.185 157.772C329.103 158.555 328.738 159.28 328.158 159.812C327.578 160.343 326.824 160.644 326.037 160.658Z" fill="#E4A951"/>
<path opacity="0.4" d="M326.037 160.658H307.34C306.97 160.665 306.603 160.593 306.262 160.448C305.922 160.302 305.617 160.085 305.367 159.812C305.117 159.539 304.928 159.216 304.813 158.864C304.698 158.512 304.659 158.14 304.699 157.772L306.146 141.165C306.228 140.382 306.593 139.657 307.173 139.125C307.753 138.593 308.507 138.293 309.294 138.279H327.991C328.361 138.273 328.727 138.346 329.067 138.492C329.406 138.639 329.711 138.855 329.961 139.128C330.21 139.401 330.399 139.723 330.515 140.074C330.631 140.425 330.671 140.797 330.632 141.165L329.185 157.772C329.103 158.555 328.738 159.28 328.158 159.812C327.578 160.343 326.824 160.644 326.037 160.658Z" fill="white"/>
<path d="M361.866 104.702H312.225C311.854 104.71 311.485 104.638 311.145 104.491C310.804 104.345 310.498 104.128 310.248 103.854C309.998 103.58 309.809 103.255 309.695 102.902C309.58 102.55 309.542 102.176 309.583 101.808L311.031 85.2091C311.108 84.4258 311.471 83.6982 312.049 83.1646C312.628 82.631 313.382 82.3285 314.169 82.3146H363.82C364.191 82.3086 364.558 82.3814 364.898 82.5283C365.239 82.6751 365.544 82.8926 365.794 83.1663C366.043 83.44 366.232 83.7637 366.347 84.1159C366.462 84.4681 366.501 84.8407 366.462 85.2091L365.014 101.808C364.937 102.593 364.573 103.321 363.992 103.855C363.412 104.389 362.655 104.691 361.866 104.702Z" fill="#E4A951"/>
<path d="M163.833 128.899C156.289 128.899 150.002 126.23 145.543 121.12C139.817 114.544 138.957 106.384 143.29 99.8174C149.722 90.0935 166.483 84.9104 177.509 86.3486C177.567 86.356 177.623 86.3753 177.672 86.4055C177.722 86.4356 177.765 86.4758 177.798 86.5236C177.832 86.5713 177.854 86.6255 177.865 86.6826C177.876 86.7397 177.875 86.7985 177.862 86.8552C177.834 86.9748 177.764 87.0802 177.664 87.1517C177.564 87.2233 177.442 87.2561 177.319 87.2441C166.564 85.8421 150.264 90.8623 144.041 100.27C139.138 107.687 141.97 115.575 146.257 120.495C152.236 127.352 160.386 128.32 166.157 127.913C177.184 127.144 189.26 120.839 196.216 112.228C198.16 109.822 201.145 105.199 199.318 101.373C196.605 95.6474 187.559 96.0454 180.015 97.0223C179.958 97.0299 179.9 97.0256 179.845 97.0098C179.79 96.994 179.739 96.9671 179.695 96.9305C179.651 96.894 179.615 96.8488 179.589 96.7976C179.563 96.7465 179.548 96.6906 179.545 96.6334C179.541 96.5102 179.584 96.3901 179.664 96.2965C179.744 96.2029 179.857 96.1425 179.979 96.1268C185.026 95.4665 196.84 93.9378 200.141 100.939C202.186 105.245 198.984 110.22 196.903 112.807C189.784 121.617 177.419 128.076 166.148 128.854C165.37 128.872 164.629 128.899 163.833 128.899Z" fill="#E4A951"/>
<path d="M314.784 155.674H314.712C314.571 155.664 314.434 155.617 314.317 155.538C314.199 155.458 314.105 155.349 314.043 155.222C313.111 153.089 311.83 151.126 310.253 149.414C310.075 149.238 309.975 148.998 309.974 148.748C309.973 148.498 310.072 148.258 310.248 148.08C310.424 147.903 310.664 147.802 310.914 147.802C311.164 147.801 311.405 147.899 311.582 148.076C313.033 149.592 314.233 151.329 315.137 153.223C318.245 150.031 321.613 147.102 325.205 144.466C325.392 144.321 325.628 144.255 325.863 144.282C326.098 144.309 326.313 144.427 326.462 144.611C326.531 144.711 326.58 144.823 326.604 144.942C326.629 145.061 326.63 145.184 326.606 145.303C326.582 145.422 326.535 145.535 326.467 145.635C326.399 145.735 326.311 145.821 326.209 145.887C322.355 148.704 318.773 151.875 315.508 155.357C315.416 155.457 315.304 155.537 315.179 155.591C315.055 155.646 314.92 155.674 314.784 155.674Z" fill="white"/>
<path d="M281.47 215.582C280.169 215.604 278.879 215.349 277.685 214.834C276.49 214.319 275.419 213.555 274.542 212.595C273.666 211.634 273.003 210.498 272.599 209.262C272.195 208.025 272.058 206.717 272.198 205.424C272.481 202.675 273.76 200.125 275.795 198.255C277.83 196.385 280.48 195.325 283.243 195.275C284.543 195.252 285.833 195.506 287.027 196.02C288.221 196.534 289.293 197.297 290.17 198.257C291.047 199.217 291.709 200.352 292.114 201.588C292.518 202.824 292.654 204.132 292.514 205.424C292.232 208.174 290.953 210.726 288.918 212.597C286.883 214.469 284.234 215.53 281.47 215.582ZM283.125 197.084C280.86 197.134 278.691 198.009 277.026 199.544C275.36 201.08 274.313 203.171 274.08 205.424C273.964 206.487 274.076 207.562 274.407 208.578C274.739 209.594 275.283 210.528 276.004 211.317C276.724 212.107 277.604 212.734 278.586 213.158C279.567 213.581 280.627 213.791 281.696 213.773C283.962 213.721 286.131 212.845 287.796 211.308C289.461 209.77 290.509 207.678 290.741 205.424C290.854 204.363 290.74 203.289 290.407 202.275C290.075 201.26 289.53 200.328 288.81 199.54C288.09 198.752 287.211 198.125 286.231 197.702C285.251 197.279 284.193 197.068 283.125 197.084Z" fill="#E4A951"/>
<path d="M194.479 159.518C193.178 159.54 191.888 159.285 190.694 158.77C189.5 158.255 188.428 157.491 187.552 156.531C186.675 155.57 186.012 154.434 185.608 153.198C185.204 151.961 185.067 150.653 185.207 149.36C185.49 146.604 186.775 144.047 188.817 142.175C190.86 140.303 193.518 139.245 196.288 139.202C197.589 139.18 198.879 139.435 200.073 139.951C201.267 140.466 202.339 141.229 203.215 142.189C204.092 143.15 204.755 144.286 205.159 145.523C205.563 146.759 205.7 148.067 205.56 149.36C205.275 152.115 203.99 154.671 201.948 156.543C199.906 158.415 197.249 159.473 194.479 159.518ZM196.089 141.011C193.823 141.061 191.653 141.937 189.987 143.475C188.321 145.012 187.275 147.105 187.044 149.36C186.928 150.423 187.04 151.498 187.371 152.514C187.703 153.53 188.247 154.464 188.968 155.253C189.688 156.043 190.568 156.67 191.549 157.094C192.531 157.517 193.591 157.727 194.66 157.709C196.926 157.657 199.094 156.781 200.76 155.243C202.425 153.706 203.473 151.614 203.705 149.36C203.819 148.299 203.707 147.226 203.376 146.212C203.045 145.198 202.502 144.266 201.784 143.477C201.066 142.688 200.189 142.06 199.21 141.635C198.231 141.21 197.174 140.997 196.107 141.011H196.089Z" fill="#E4A951"/>
<path opacity="0.1" d="M212.154 183.841H118.171C117.303 183.854 116.442 183.682 115.646 183.337C114.849 182.993 114.135 182.483 113.55 181.842C112.966 181.2 112.523 180.442 112.253 179.617C111.983 178.793 111.891 177.92 111.984 177.057C112.175 175.222 113.03 173.52 114.387 172.271C115.745 171.022 117.511 170.311 119.356 170.273H213.339C214.207 170.26 215.067 170.432 215.864 170.777C216.66 171.121 217.374 171.631 217.959 172.272C218.544 172.914 218.986 173.672 219.256 174.497C219.526 175.321 219.618 176.194 219.526 177.057C219.335 178.892 218.48 180.594 217.122 181.843C215.765 183.092 213.998 183.803 212.154 183.841Z" fill="black"/>
<path d="M87.1898 162.285L90.7175 163.796L85.9867 169.594C85.1601 168.154 84.516 166.616 84.0691 165.017C84.0025 164.783 83.9839 164.538 84.0143 164.297C84.0447 164.055 84.1234 163.822 84.2459 163.612C84.3683 163.402 84.5319 163.218 84.7269 163.073C84.9219 162.927 85.1443 162.822 85.3807 162.765L87.1898 162.285Z" fill="#FF8B7B"/>
<path d="M92.3367 170.056L90.22 172.407C90.0601 172.586 89.8616 172.726 89.6395 172.816C89.4175 172.906 89.1778 172.944 88.9387 172.927C88.6997 172.911 88.4676 172.84 88.2601 172.72C88.0526 172.6 87.8752 172.434 87.7415 172.236L85.9867 169.63L90.7175 163.832L92.6261 168.355C92.7498 168.636 92.7883 168.946 92.7369 169.249C92.6854 169.551 92.5462 169.832 92.3367 170.056Z" fill="#FF8B7B"/>
<path d="M216.767 181.561L94.4262 171.865C93.5619 171.807 92.7195 171.568 91.9543 171.162C91.189 170.756 90.5183 170.193 89.9861 169.51C89.4539 168.826 89.0723 168.038 88.8663 167.197C88.6603 166.355 88.6346 165.48 88.7908 164.628C89.1271 162.814 90.1141 161.185 91.5666 160.048C93.019 158.91 94.8368 158.342 96.6785 158.45L219.019 168.138C219.884 168.194 220.727 168.432 221.493 168.837C222.259 169.243 222.93 169.806 223.463 170.49C223.995 171.174 224.377 171.962 224.582 172.804C224.788 173.646 224.812 174.522 224.655 175.374C224.318 177.189 223.332 178.819 221.88 179.958C220.427 181.097 218.61 181.667 216.767 181.561Z" fill="#E4A951"/>
<path d="M130.445 124.475C131.974 127.922 133.539 131.458 135.122 134.896C136.705 138.333 138.342 141.825 140.097 144.846C140.469 145.476 140.883 146.08 141.336 146.655C141.879 147.297 142.485 147.958 143.1 148.636C144.357 149.984 145.705 151.35 147.053 152.688C149.767 155.402 152.48 158.116 155.194 160.947L152.48 164.484C149.052 162.508 145.731 160.352 142.53 158.025C140.92 156.858 139.346 155.646 137.772 154.326C136.985 153.665 136.207 152.96 135.411 152.191C134.58 151.322 133.821 150.387 133.141 149.396C130.876 146.003 128.842 142.461 127.053 138.794C125.29 135.221 123.67 131.667 122.16 127.94L130.445 124.475Z" fill="#FF8B7B"/>
<path d="M100.532 123.924C98.4787 127.28 96.3711 130.654 94.2635 133.991L87.9768 144.014L87.208 145.262L87.1175 145.425V145.497V145.551C87.0723 145.62 87.033 145.693 86.9999 145.769C86.7895 146.376 86.6618 147.009 86.62 147.65C86.5167 149.4 86.5682 151.156 86.7738 152.896C87.1627 156.587 87.8954 160.486 88.6733 164.258L84.4762 165.813C82.5605 162.101 81.0445 158.195 79.9534 154.163C79.3587 151.998 79.0038 149.775 78.8951 147.532C78.8319 146.177 78.9598 144.818 79.275 143.498C79.4017 143.1 79.5012 142.738 79.673 142.313L79.9534 141.698L80.071 141.454L80.1524 141.291L80.8489 139.925C82.658 136.307 84.6571 132.797 86.6743 129.324C88.6914 125.85 90.79 122.44 93.0061 119.057L100.532 123.924Z" fill="#FF8B7B"/>
<path d="M124.467 98.8765C124.304 99.3197 124.403 99.781 124.693 99.9076C124.982 100.034 125.353 99.7629 125.525 99.3106C125.697 98.8584 125.588 98.4061 125.299 98.2794C125.009 98.1528 124.638 98.4242 124.467 98.8765Z" fill="#263238"/>
<path d="M124.358 99.772C124.377 101.372 124.609 102.963 125.045 104.503C124.655 104.596 124.249 104.601 123.856 104.518C123.464 104.435 123.094 104.266 122.775 104.023L124.358 99.772Z" fill="#FF5652"/>
<path d="M126.122 96.2352C126.063 96.2244 126.01 96.196 125.968 96.1538C125.697 95.9313 125.376 95.7767 125.033 95.7027C124.69 95.6288 124.335 95.6377 123.996 95.7286C123.96 95.738 123.922 95.7401 123.885 95.7347C123.848 95.7293 123.812 95.7165 123.78 95.6971C123.748 95.6777 123.72 95.6521 123.698 95.6218C123.676 95.5915 123.661 95.5571 123.652 95.5206C123.636 95.4486 123.649 95.3732 123.688 95.3105C123.727 95.2479 123.789 95.2031 123.86 95.1859C124.291 95.0708 124.743 95.0617 125.178 95.1594C125.612 95.257 126.017 95.4586 126.357 95.7467C126.383 95.7728 126.404 95.8038 126.418 95.8379C126.432 95.8721 126.44 95.9087 126.44 95.9457C126.44 95.9827 126.432 96.0193 126.418 96.0535C126.404 96.0876 126.383 96.1186 126.357 96.1447C126.327 96.1771 126.291 96.2021 126.25 96.2178C126.209 96.2336 126.165 96.2395 126.122 96.2352Z" fill="#263238"/>
<path d="M107.976 99.7629C107.407 104.629 108.338 110.762 105.01 113.205C105.01 113.205 105.706 117.727 113.711 118.967C122.513 120.269 118.397 115.195 118.397 115.195C113.72 113.322 114.236 109.767 115.439 106.52L107.976 99.7629Z" fill="#FF8B7B"/>
<path d="M102.215 116.262C102.097 114.019 102.215 110.636 103.608 110.147C105.127 109.613 114.109 110.328 118.614 114.407C117.583 116.442 117.056 118.694 117.076 120.975L102.215 116.262Z" fill="#263238"/>
<path d="M74.6889 318.013C73.8745 317.946 73.0814 317.718 72.3552 317.344C72.3299 317.331 72.3087 317.312 72.2943 317.288C72.2798 317.264 72.2727 317.236 72.2738 317.208C72.2758 317.182 72.2854 317.157 72.3015 317.136C72.3175 317.115 72.3393 317.099 72.3642 317.09C72.4456 317.09 74.2547 316.367 75.0779 316.756C75.1665 316.798 75.2453 316.859 75.3092 316.934C75.3731 317.008 75.4206 317.096 75.4487 317.19C75.4993 317.3 75.5134 317.424 75.489 317.542C75.4646 317.661 75.403 317.769 75.3131 317.85C75.1321 317.979 74.9099 318.037 74.6889 318.013ZM72.7803 317.235C73.6125 317.606 74.7975 317.895 75.1141 317.633C75.1141 317.633 75.2407 317.534 75.1141 317.271C75.0964 317.214 75.0672 317.162 75.0283 317.117C74.9894 317.072 74.9416 317.035 74.8879 317.009C74.1781 316.883 73.4473 316.962 72.7803 317.235Z" fill="#E4A951"/>
<path d="M72.4185 317.362C72.3807 317.361 72.345 317.344 72.319 317.317C72.3061 317.297 72.2993 317.273 72.2993 317.249C72.2993 317.225 72.3061 317.201 72.319 317.181C72.319 317.109 72.8255 315.463 73.6215 315.074C73.7195 315.029 73.8259 315.006 73.9336 315.006C74.0413 315.006 74.1477 315.029 74.2457 315.074C74.3516 315.099 74.4452 315.161 74.5097 315.249C74.5743 315.337 74.6057 315.444 74.5985 315.553C74.5985 316.231 73.1421 317.208 72.4909 317.362H72.4185ZM73.9381 315.273C73.8567 315.273 73.7765 315.292 73.703 315.327C73.1888 315.761 72.8196 316.342 72.6446 316.991C73.323 316.684 74.2547 315.915 74.2819 315.508C74.2819 315.508 74.2819 315.372 74.11 315.309C74.0559 315.285 73.9973 315.272 73.9381 315.273Z" fill="#E4A951"/>
<path d="M120.161 320.646C119.554 320.643 118.948 320.586 118.352 320.474C118.326 320.464 118.304 320.447 118.288 320.424C118.273 320.401 118.265 320.375 118.265 320.347C118.265 320.32 118.273 320.293 118.288 320.27C118.304 320.248 118.326 320.23 118.352 320.221C118.65 320.04 121.291 318.529 121.925 319.578C121.989 319.67 122.023 319.779 122.023 319.89C122.023 320.002 121.989 320.111 121.925 320.202C121.653 320.537 120.921 320.646 120.161 320.646ZM118.777 320.266C119.898 320.429 121.409 320.401 121.662 320.04C121.662 320.04 121.744 319.922 121.662 319.723C121.264 319.126 119.654 319.804 118.777 320.266Z" fill="#E4A951"/>
<path d="M118.352 320.483C118.328 320.492 118.302 320.492 118.279 320.483C118.258 320.469 118.241 320.451 118.23 320.428C118.219 320.406 118.214 320.381 118.216 320.356C118.239 319.521 118.531 318.715 119.048 318.058C119.155 317.968 119.279 317.9 119.413 317.858C119.546 317.816 119.687 317.801 119.826 317.814C120.224 317.859 120.342 318.058 120.369 318.221C120.477 318.909 119.129 320.166 118.415 320.492L118.352 320.483ZM119.717 318.067C119.538 318.068 119.365 318.132 119.229 318.248C118.812 318.764 118.565 319.396 118.523 320.057C119.238 319.614 120.161 318.619 120.088 318.203C120.088 318.203 120.088 318.058 119.799 318.031L119.717 318.067Z" fill="#E4A951"/>
<path d="M111.812 320.338H117.764L117.827 306.544H111.866L111.812 320.338Z" fill="#FF8B7B"/>
<path d="M65.6795 316.069L71.2606 317.362L75.9462 303.722L70.3651 302.428L65.6795 316.069Z" fill="#FF8B7B"/>
<path d="M72.129 316.439L65.6433 314.784C65.5303 314.752 65.4096 314.762 65.3033 314.812C65.197 314.862 65.1122 314.948 65.0644 315.055L62.8302 319.949C62.7761 320.071 62.7497 320.203 62.7527 320.337C62.7558 320.47 62.7884 320.601 62.848 320.72C62.9076 320.84 62.9929 320.944 63.0978 321.027C63.2026 321.109 63.3243 321.167 63.4543 321.197C65.7338 321.731 66.8645 321.876 69.7138 322.59C71.4687 323.034 75.0507 324.128 77.4749 324.734C79.8991 325.34 80.7222 322.997 79.7725 322.536C75.5301 320.428 74.1461 318.655 72.9883 317C72.7766 316.718 72.4724 316.52 72.129 316.439Z" fill="#263238"/>
<path d="M117.7 319.651H111.197C111.079 319.65 110.966 319.691 110.875 319.765C110.784 319.839 110.722 319.943 110.699 320.058L109.731 325.349C109.709 325.48 109.715 325.615 109.75 325.743C109.786 325.871 109.849 325.99 109.935 326.091C110.021 326.192 110.129 326.273 110.25 326.327C110.371 326.382 110.503 326.41 110.636 326.408C112.979 326.408 116.362 326.236 119.311 326.236C122.766 326.236 122.829 326.417 126.873 326.417C129.315 326.417 129.903 323.947 128.872 323.703C124.168 322.69 123.282 322.581 119.157 320.085C118.72 319.81 118.216 319.659 117.7 319.651Z" fill="#263238"/>
<path d="M98.0353 112.798C92.3728 113.25 84.3857 127.451 84.3857 127.451L94.6433 136.741C97.8377 133.165 100.744 129.342 103.336 125.307C107.361 118.858 103.824 112.336 98.0353 112.798Z" fill="#E4A951"/>
<path opacity="0.6" d="M98.0353 112.798C92.3728 113.25 84.3857 127.451 84.3857 127.451L94.6433 136.741C97.8377 133.165 100.744 129.342 103.336 125.307C107.361 118.858 103.824 112.336 98.0353 112.798Z" fill="white"/>
<path opacity="0.2" d="M100.93 123.019L94.1549 136.28L94.6343 136.723C94.6343 136.723 97.2575 133.855 100.179 129.902L100.93 123.019Z" fill="black"/>
<path d="M126.411 144.638C125.389 151.205 123.77 159.328 121.282 169.332L89.7768 164.628C90.0663 160.106 94.8875 139.943 93.9377 118.297C93.9041 117.576 94.019 116.856 94.2753 116.182C94.5317 115.507 94.924 114.892 95.4278 114.376C95.9317 113.859 96.5364 113.452 97.2044 113.179C97.8723 112.906 98.5893 112.773 99.3108 112.788C100.867 112.788 102.576 112.906 104.259 113.069C108.758 113.479 113.231 114.143 117.655 115.059C120.689 115.827 123.658 116.828 126.538 118.053C126.538 118.053 128.799 121.373 127.578 135.185C127.334 137.926 126.963 141.047 126.411 144.638Z" fill="#E4A951"/>
<path opacity="0.6" d="M126.411 144.638C125.389 151.205 123.77 159.328 121.282 169.332L89.7768 164.628C90.0663 160.106 94.8875 139.943 93.9377 118.297C93.9041 117.576 94.019 116.856 94.2753 116.182C94.5317 115.507 94.924 114.892 95.4278 114.376C95.9317 113.859 96.5364 113.452 97.2044 113.179C97.8723 112.906 98.5893 112.773 99.3108 112.788C100.867 112.788 102.576 112.906 104.259 113.069C108.758 113.479 113.231 114.143 117.655 115.059C120.689 115.827 123.658 116.828 126.538 118.053C126.538 118.053 128.799 121.373 127.578 135.185C127.334 137.926 126.963 141.047 126.411 144.638Z" fill="white"/>
<path opacity="0.2" d="M126.411 144.638C123.851 143.018 121.454 135.592 122.531 131.675L127.578 135.203C127.334 137.926 126.963 141.046 126.411 144.638Z" fill="black"/>
<path d="M119.329 122.114C117.7 127.541 127.56 143.525 127.56 143.525L139.319 137.374C137.59 132.364 135.27 127.579 132.408 123.118C127.696 116.18 121.21 115.981 119.329 122.114Z" fill="#E4A951"/>
<path opacity="0.6" d="M119.329 122.114C117.7 127.541 127.56 143.525 127.56 143.525L139.319 137.374C137.59 132.364 135.27 127.579 132.408 123.118C127.696 116.18 121.21 115.981 119.329 122.114Z" fill="white"/>
<path opacity="0.2" d="M117.818 306.552L117.791 313.662H111.839L111.866 306.552H117.818Z" fill="black"/>
<path opacity="0.2" d="M70.3652 302.437L75.9463 303.721L73.5221 310.759L67.9501 309.465L70.3652 302.437Z" fill="black"/>
<path d="M110.039 91.7574C108.311 97.429 107.018 100.649 108.718 104.629C109.246 105.932 110.121 107.065 111.249 107.905C112.376 108.745 113.713 109.259 115.112 109.391C116.512 109.524 117.921 109.27 119.186 108.656C120.451 108.043 121.524 107.094 122.286 105.914C125.308 101.391 127.623 92.9062 123.11 88.483C122.162 87.4961 120.971 86.7772 119.657 86.3989C118.342 86.0206 116.951 85.9964 115.624 86.3288C114.298 86.6612 113.082 87.3384 112.101 88.2917C111.12 89.245 110.409 90.4406 110.039 91.7574Z" fill="#FF8B7B"/>
<path d="M119.148 97.9898C118.469 100.893 116.705 106.131 112.364 106.737C109.939 107.072 105.905 106.357 105.534 104.403C105.163 102.449 106.665 102.712 106.285 101.111C105.905 99.5094 103.924 93.8741 106.176 89.9302C103.047 90.1925 105.19 85.5522 110.808 84.5029C109.071 83.8245 109.903 79.0756 118.569 81.337C122.621 82.3772 125.633 83.9692 125.995 86.1492C129.686 87.705 130.663 91.6217 128.374 93.0509C126.086 94.4801 122.775 92.87 122.775 92.87C122.775 92.87 124.34 101.156 119.148 97.9898Z" fill="#263238"/>
<path d="M116.787 97.5467C116.707 98.8492 117.106 100.136 117.908 101.165C118.985 102.54 119.347 102.549 119.79 101.02C120.197 99.6453 121.183 96.5698 119.745 95.7557C118.306 94.9416 116.913 95.9638 116.787 97.5467Z" fill="#FF8B7B"/>
<path d="M110.111 167.667C110.111 167.667 105.218 214.378 102.214 231.42C98.8676 250.09 76.6337 310.116 76.6337 310.116L66.0323 307.493C71.4597 286.688 79.5011 247.946 84.3948 233.112C88.0853 210.561 84.3948 182.212 89.8221 164.646L110.111 167.667Z" fill="#263238"/>
<path d="M79.103 306.643L77.1492 310.469L65.2453 307.475L66.2313 303.857L79.103 306.643Z" fill="#E4A951"/>
<path opacity="0.2" d="M107.09 185.885C107.427 185.818 107.775 185.818 108.112 185.885C106.547 199.833 104.322 218.449 102.567 229.132C101.102 213.61 99.745 187.332 107.09 185.885Z" fill="black"/>
<path d="M121.282 169.332C121.282 169.332 123.752 219.245 124.114 237.4C124.485 256.287 119.962 312.288 119.962 312.288H109.867C109.867 312.288 106.059 260.357 108.112 235.03C105.679 215.736 100.577 166.284 100.577 166.284L121.282 169.332Z" fill="#263238"/>
<path d="M157.709 160.377C156.067 160.241 154.417 160.476 152.878 161.064L152.146 162.277C152.003 162.516 151.917 162.785 151.893 163.063C151.869 163.341 151.908 163.621 152.007 163.882C152.106 164.143 152.263 164.378 152.465 164.57C152.668 164.762 152.911 164.905 153.177 164.99L156.714 166.121L158.441 166.646C158.805 166.758 159.195 166.753 159.555 166.631C159.916 166.509 160.229 166.277 160.45 165.967L161.191 164.936C161.458 164.572 161.578 164.121 161.53 163.673C161.481 163.225 161.267 162.81 160.929 162.512L159.337 161.073C158.883 160.672 158.312 160.428 157.709 160.377Z" fill="#FF8B7B"/>
<path d="M121.744 308.262L121.337 312.451H109.062L108.592 308.715L121.744 308.262Z" fill="#E4A951"/>
</svg>
